<svg id="88499d82-0181-4b88-8694-9f591cc32906" data-name="Layer 1" xmlns="http://www.w3.org/2000/svg" viewBox="0 0 434.3 112.49"><defs><style>.\39 6a78993-f8b8-44a3-81ef-800ef4d1dbd2{fill:#231f20;}</style></defs><title>PHPDD18-Logo-v3</title><path d="M40.32,75.79A14.29,14.29,0,0,0,45.1,71.2a18.85,18.85,0,0,0,2.57-6.6,38.34,38.34,0,0,0,.76-7.66,35.75,35.75,0,0,0-.82-7.67,20.26,20.26,0,0,0-2.7-6.72,15.13,15.13,0,0,0-4.84-4.78A13.57,13.57,0,0,0,32.84,36a13.81,13.81,0,0,0-7.35,1.82,14.71,14.71,0,0,0-4.77,4.71,19.45,19.45,0,0,0-2.58,6.66,40,40,0,0,0-.75,7.8,36.29,36.29,0,0,0,.81,7.66,19.94,19.94,0,0,0,2.64,6.6,14,14,0,0,0,4.84,4.59A14.26,14.26,0,0,0,33,77.55a14.18,14.18,0,0,0,7.35-1.76ZM17.13,24.26v8.29h.26a19.61,19.61,0,0,1,8.29-7.66A25.48,25.48,0,0,1,36.74,22.5a28.14,28.14,0,0,1,13.2,2.89,27.27,27.27,0,0,1,9.17,7.67,32.47,32.47,0,0,1,5.41,11.12,49.52,49.52,0,0,1,1.76,13.26A44.76,44.76,0,0,1,64.52,70a32.11,32.11,0,0,1-5.35,10.68,26.48,26.48,0,0,1-8.92,7.42,26.88,26.88,0,0,1-12.5,2.76,25.38,25.38,0,0,1-11.13-2.45,20.93,20.93,0,0,1-8.35-7.23H18V112H.17V24.26Z" transform="translate(-0.17 0.5)"/><path d="M91.71-.5V33.31h.38a20.59,20.59,0,0,1,8.67-8.23,23.36,23.36,0,0,1,10.3-2.58,30.32,30.32,0,0,1,11.76,1.95,17.49,17.49,0,0,1,7.22,5.4,20.91,20.91,0,0,1,3.71,8.42,52.56,52.56,0,0,1,1.07,11v40H117V52.54c0-5.36-.84-9.37-2.51-12s-4.65-4-8.93-4q-7.29,0-10.55,4.33T91.71,55.18V89.24H73.86V-.5Z" transform="translate(-0.17 0.5)"/><path d="M183.59,75.79a14.29,14.29,0,0,0,4.78-4.59A19.06,19.06,0,0,0,191,64.6a39.09,39.09,0,0,0,.75-7.66,35.75,35.75,0,0,0-.82-7.67,20.26,20.26,0,0,0-2.7-6.72,15.13,15.13,0,0,0-4.84-4.78A13.55,13.55,0,0,0,176.12,36a13.82,13.82,0,0,0-7.36,1.82A14.71,14.71,0,0,0,164,42.48a19.45,19.45,0,0,0-2.58,6.66,40,40,0,0,0-.75,7.8,36.29,36.29,0,0,0,.81,7.66,19.94,19.94,0,0,0,2.64,6.6A14.11,14.11,0,0,0,169,75.79a16.1,16.1,0,0,0,14.64,0ZM160.4,24.26v8.29h.26A19.61,19.61,0,0,1,169,24.89,25.48,25.48,0,0,1,180,22.5a28.14,28.14,0,0,1,13.2,2.89,27.27,27.27,0,0,1,9.17,7.67,32.47,32.47,0,0,1,5.41,11.12,49.52,49.52,0,0,1,1.76,13.26A44.76,44.76,0,0,1,207.79,70a32.28,32.28,0,0,1-5.34,10.68,26.61,26.61,0,0,1-8.93,7.42A26.88,26.88,0,0,1,181,90.87a25.38,25.38,0,0,1-11.13-2.45,20.93,20.93,0,0,1-8.35-7.23h-.26V112H143.44V24.26Z" transform="translate(-0.17 0.5)"/><path d="M339.29,65.37a11.42,11.42,0,0,1,2.11-4,9.58,9.58,0,0,1,3.54-2.64,12,12,0,0,1,4.91-1,12.24,12.24,0,0,1,4,.66,10.39,10.39,0,0,1,3.37,1.89,9.06,9.06,0,0,1,2.31,3,9.33,9.33,0,0,1,.86,4,9.71,9.71,0,0,1-.75,4,10.42,10.42,0,0,1-2,3,16.57,16.57,0,0,1-2.8,2.36l-3.14,2.09c-1.06.68-2.08,1.43-3.08,2.22A13.62,13.62,0,0,0,346,83.87h14.56v5.37H338a12.73,12.73,0,0,1,.77-4.67A12.31,12.31,0,0,1,340.83,81a18.24,18.24,0,0,1,3.1-2.88c1.19-.88,2.44-1.77,3.76-2.69.67-.46,1.39-.94,2.16-1.42a14.66,14.66,0,0,0,2.09-1.61,8.55,8.55,0,0,0,1.58-2,4.86,4.86,0,0,0,.64-2.51,4.39,4.39,0,0,0-4.62-4.75,4,4,0,0,0-2.31.64,4.7,4.7,0,0,0-1.52,1.67,7.68,7.68,0,0,0-.81,2.29,12.35,12.35,0,0,0-.25,2.48h-6A14.69,14.69,0,0,1,339.29,65.37Z" transform="translate(-0.17 0.5)"/><path d="M363.33,66.16a13.75,13.75,0,0,1,2.44-4.91,8.85,8.85,0,0,1,3.59-2.64,12.4,12.4,0,0,1,8.71,0,8.91,8.91,0,0,1,3.61,2.64,13.45,13.45,0,0,1,2.46,4.91,26.69,26.69,0,0,1,.91,7.55,27.73,27.73,0,0,1-.91,7.72,13.33,13.33,0,0,1-2.46,4.95A8.91,8.91,0,0,1,378.07,89a12.4,12.4,0,0,1-8.71,0,8.85,8.85,0,0,1-3.59-2.64,13.63,13.63,0,0,1-2.44-4.95,28.15,28.15,0,0,1-.9-7.72A27.09,27.09,0,0,1,363.33,66.16Zm5.44,10.74a16.48,16.48,0,0,0,.55,3.6,7.53,7.53,0,0,0,1.47,3,3.54,3.54,0,0,0,2.9,1.24,3.66,3.66,0,0,0,3-1.24,7.58,7.58,0,0,0,1.5-3,17.1,17.1,0,0,0,.55-3.6c.06-1.25.09-2.32.09-3.19,0-.53,0-1.17,0-1.92s-.08-1.52-.18-2.31a21.12,21.12,0,0,0-.44-2.35A7.12,7.12,0,0,0,377.3,65a4.62,4.62,0,0,0-1.45-1.5,3.91,3.91,0,0,0-2.16-.57,3.76,3.76,0,0,0-2.13.57,4.61,4.61,0,0,0-1.41,1.5,8.4,8.4,0,0,0-.86,2.09,17.35,17.35,0,0,0-.44,2.35c-.08.79-.14,1.56-.15,2.31s0,1.39,0,1.92C368.68,74.58,368.71,75.65,368.77,76.9Z" transform="translate(-0.17 0.5)"/><path d="M397,89.24v-20h-7.74V64.55a14.75,14.75,0,0,0,3.14-.24,8.33,8.33,0,0,0,2.73-1,6.66,6.66,0,0,0,2-1.91,7,7,0,0,0,1.1-3h5v30.8Z" transform="translate(-0.17 0.5)"/><path d="M413.25,62.57a8.42,8.42,0,0,1,2.4-2.64A10.72,10.72,0,0,1,419,58.35a13.63,13.63,0,0,1,3.74-.53,12,12,0,0,1,4.84.88,10.22,10.22,0,0,1,3.19,2.13,7.74,7.74,0,0,1,1.74,2.69,7.56,7.56,0,0,1,.53,2.57,7.16,7.16,0,0,1-1.13,4,6.2,6.2,0,0,1-3.36,2.46v.09a7,7,0,0,1,4.26,2.62,7.93,7.93,0,0,1,1.5,4.9,8.72,8.72,0,0,1-1,4.27,9,9,0,0,1-2.62,3A11.29,11.29,0,0,1,427,89.21a15.12,15.12,0,0,1-4.23.6,16.8,16.8,0,0,1-4.33-.55,11.36,11.36,0,0,1-3.74-1.74,8.93,8.93,0,0,1-2.64-3,8.83,8.83,0,0,1-1-4.31,7.87,7.87,0,0,1,1.52-4.93,7.32,7.32,0,0,1,4.29-2.64v-.09a5.71,5.71,0,0,1-3.39-2.33,7.6,7.6,0,0,1-.22-7.66Zm4.49,19.5a5,5,0,0,0,2.9,2.7,6.06,6.06,0,0,0,2.11.38,5.6,5.6,0,0,0,2.09-.38,5.26,5.26,0,0,0,1.68-1.06,4.74,4.74,0,0,0,1.12-1.64A5.63,5.63,0,0,0,428,80a4.68,4.68,0,0,0-.42-2,4.63,4.63,0,0,0-1.14-1.56,5,5,0,0,0-1.67-1,5.7,5.7,0,0,0-2.05-.35,6,6,0,0,0-3.87,1.25,4.35,4.35,0,0,0-1.58,3.63A5.09,5.09,0,0,0,417.74,82.07Zm1.67-12.26a5.43,5.43,0,0,0,3.3,1,5.19,5.19,0,0,0,3.3-1,3.59,3.59,0,0,0,1.32-3,5.57,5.57,0,0,0-.18-1.34,3.53,3.53,0,0,0-.68-1.39,3.88,3.88,0,0,0-1.41-1.1,5.41,5.41,0,0,0-2.35-.44,5.32,5.32,0,0,0-1.78.29,4.81,4.81,0,0,0-1.52.81,3.53,3.53,0,0,0-1,1.32A4.27,4.27,0,0,0,418,66.8,3.5,3.5,0,0,0,419.41,69.81Z" transform="translate(-0.17 0.5)"/><path class="96a78993-f8b8-44a3-81ef-800ef4d1dbd2" d="M251.52,83.74h-.1a11.66,11.66,0,0,1-4,4.57,11.93,11.93,0,0,1-10.85.43,10,10,0,0,1-3.45-2.95,12.78,12.78,0,0,1-2-4.28,19.63,19.63,0,0,1-.65-5.07,19.4,19.4,0,0,1,.7-5.33,12.13,12.13,0,0,1,2.12-4.27A10.24,10.24,0,0,1,236.87,64a12.12,12.12,0,0,1,8.1-.63,10.64,10.64,0,0,1,2.77,1.23,8.66,8.66,0,0,1,2.23,2,8.79,8.79,0,0,1,1.45,2.7h.1V53.54h1.9v35.7h-1.9ZM242,88.19a8.52,8.52,0,0,0,4.22-1,8.94,8.94,0,0,0,2.95-2.65,11.51,11.51,0,0,0,1.75-3.78,16.18,16.18,0,0,0,.58-4.32,16.46,16.46,0,0,0-.58-4.38,12.3,12.3,0,0,0-1.72-3.8,8.52,8.52,0,0,0-3-2.67,8.69,8.69,0,0,0-4.27-1,9,9,0,0,0-4.35,1,8.77,8.77,0,0,0-3,2.63,11,11,0,0,0-1.7,3.8,18.63,18.63,0,0,0-.52,4.45,16.74,16.74,0,0,0,.57,4.37,11.93,11.93,0,0,0,1.75,3.78,8.74,8.74,0,0,0,3,2.62A8.9,8.9,0,0,0,242,88.19Z" transform="translate(-0.17 0.5)"/><path class="96a78993-f8b8-44a3-81ef-800ef4d1dbd2" d="M276.52,84.14h-.1a7.87,7.87,0,0,1-1.3,2.17A9.26,9.26,0,0,1,273,88.14a10.31,10.31,0,0,1-2.77,1.25,12.21,12.21,0,0,1-3.4.45,10,10,0,0,1-6.35-1.78,6.54,6.54,0,0,1-2.25-5.47,6.8,6.8,0,0,1,.9-3.68,6.87,6.87,0,0,1,2.27-2.25,9.76,9.76,0,0,1,3.05-1.17,28.59,28.59,0,0,1,3.23-.5l2.95-.25a17.06,17.06,0,0,0,3.22-.48,4,4,0,0,0,1.78-.9,2.54,2.54,0,0,0,.75-1.47,14,14,0,0,0,.15-2.25,4.69,4.69,0,0,0-.4-2,4.42,4.42,0,0,0-1.25-1.6,6.05,6.05,0,0,0-2.2-1.1,11.63,11.63,0,0,0-3.3-.4,8.64,8.64,0,0,0-5.58,1.7,6.73,6.73,0,0,0-2.32,5.15h-1.9a8.42,8.42,0,0,1,2.72-6.38q2.54-2.12,7.18-2.12t6.77,1.82a6,6,0,0,1,2.13,4.78V84.49c0,.36,0,.73,0,1.1a3.86,3.86,0,0,0,.18,1,1.49,1.49,0,0,0,.5.72,1.55,1.55,0,0,0,1,.28,9.16,9.16,0,0,0,1.4-.15V89a6.16,6.16,0,0,1-1.55.2,4.59,4.59,0,0,1-1.83-.3,2.39,2.39,0,0,1-1-.8,3.19,3.19,0,0,1-.48-1.18,8.41,8.41,0,0,1-.12-1.47Zm0-9.5a3.67,3.67,0,0,1-2.13,1.15,26.26,26.26,0,0,1-3.17.45l-3.2.3c-.94.1-1.87.24-2.8.42a8.12,8.12,0,0,0-2.53.93,5.06,5.06,0,0,0-1.82,1.77,5.46,5.46,0,0,0-.7,2.93,5,5,0,0,0,1.8,4.22,8,8,0,0,0,4.95,1.38A9.7,9.7,0,0,0,272.07,87a9.14,9.14,0,0,0,2.9-2.7,8.12,8.12,0,0,0,1.27-3,12,12,0,0,0,.28-1.92Z" transform="translate(-0.17 0.5)"/><path class="96a78993-f8b8-44a3-81ef-800ef4d1dbd2" d="M281.37,63.54h2.25L293.17,87,302,63.54h2.15L293.12,92c-.54,1.26-1,2.35-1.48,3.27a5.61,5.61,0,0,1-1.52,2,4.64,4.64,0,0,1-2.38,1,29,29,0,0,1-3.62.18V96.79a12.19,12.19,0,0,0,3.2-.33,5,5,0,0,0,2.15-1.32,6.66,6.66,0,0,0,1.15-2q.6-1.47,1.5-4Z" transform="translate(-0.17 0.5)"/><path class="96a78993-f8b8-44a3-81ef-800ef4d1dbd2" d="M307.57,80.69a7.68,7.68,0,0,0,.8,3.17,7.54,7.54,0,0,0,1.82,2.35,7.8,7.8,0,0,0,2.63,1.48,10.3,10.3,0,0,0,3.25.5,17.21,17.21,0,0,0,2.67-.23,9.2,9.2,0,0,0,2.65-.82,5.52,5.52,0,0,0,2-1.68,4.43,4.43,0,0,0,.8-2.72,4,4,0,0,0-1.3-3.25,9,9,0,0,0-3.28-1.7,32.8,32.8,0,0,0-4.25-1,22.24,22.24,0,0,1-4.25-1.12,8.6,8.6,0,0,1-3.27-2.13,6.64,6.64,0,0,1-.45-7.2,6.27,6.27,0,0,1,2.17-2,10.06,10.06,0,0,1,3-1.08,17.57,17.57,0,0,1,3.3-.32,15.05,15.05,0,0,1,3.75.45,8.08,8.08,0,0,1,3,1.45,6.76,6.76,0,0,1,2,2.55,8.68,8.68,0,0,1,.73,3.75h-1.9a7,7,0,0,0-.58-3,5.12,5.12,0,0,0-1.6-2A7.05,7.05,0,0,0,318.87,65a11.63,11.63,0,0,0-3-.37,13.93,13.93,0,0,0-2.63.25,7.42,7.42,0,0,0-2.37.85,5.27,5.27,0,0,0-1.73,1.55,3.86,3.86,0,0,0-.67,2.3,3.94,3.94,0,0,0,.75,2.5,5.4,5.4,0,0,0,2,1.52,13.86,13.86,0,0,0,2.75.93l3.08.7c1.26.23,2.46.51,3.57.82a10,10,0,0,1,2.9,1.3,5.9,5.9,0,0,1,1.93,2.13,7,7,0,0,1,.7,3.3,5.88,5.88,0,0,1-.95,3.45,7.45,7.45,0,0,1-2.4,2.17,10.25,10.25,0,0,1-3.23,1.15,18.94,18.94,0,0,1-3.47.33,13.64,13.64,0,0,1-4.08-.58,9,9,0,0,1-3.27-1.75,8.2,8.2,0,0,1-2.2-2.87,9.56,9.56,0,0,1-.85-4Z" transform="translate(-0.17 0.5)"/><path class="96a78993-f8b8-44a3-81ef-800ef4d1dbd2" d="M251.52,38.87h-.1a11.66,11.66,0,0,1-4,4.57,11.93,11.93,0,0,1-10.85.43,9.87,9.87,0,0,1-3.45-2.95,12.69,12.69,0,0,1-2-4.28,19.63,19.63,0,0,1-.65-5.07,19.4,19.4,0,0,1,.7-5.33A12.13,12.13,0,0,1,233.29,22a10.24,10.24,0,0,1,3.58-2.85,12.12,12.12,0,0,1,8.1-.63,11,11,0,0,1,2.77,1.23,8.66,8.66,0,0,1,2.23,2,8.79,8.79,0,0,1,1.45,2.7h.1V8.67h1.9v35.7h-1.9ZM242,43.32a8.42,8.42,0,0,0,4.22-1,8.94,8.94,0,0,0,2.95-2.65,11.51,11.51,0,0,0,1.75-3.78,16.13,16.13,0,0,0,.58-4.32,16.46,16.46,0,0,0-.58-4.38,12.3,12.3,0,0,0-1.72-3.8,8.47,8.47,0,0,0-7.25-3.67,9,9,0,0,0-4.35,1,8.77,8.77,0,0,0-3,2.63,11,11,0,0,0-1.7,3.8,18.69,18.69,0,0,0-.52,4.45,16.74,16.74,0,0,0,.57,4.37,11.93,11.93,0,0,0,1.75,3.78,8.74,8.74,0,0,0,3,2.62A8.9,8.9,0,0,0,242,43.32Z" transform="translate(-0.17 0.5)"/><path class="96a78993-f8b8-44a3-81ef-800ef4d1dbd2" d="M260.17,31.77v.3a15.25,15.25,0,0,0,.6,4.3,10.83,10.83,0,0,0,1.78,3.6,8.41,8.41,0,0,0,3,2.45,9,9,0,0,0,4.13.9,8.81,8.81,0,0,0,6.12-2,10.62,10.62,0,0,0,3.11-5.62h1.9a11.48,11.48,0,0,1-3.68,6.9,11.13,11.13,0,0,1-7.47,2.4,11.27,11.27,0,0,1-5-1,10.07,10.07,0,0,1-3.55-2.8,11.88,11.88,0,0,1-2.12-4.2,19.4,19.4,0,0,1,0-10.4,13.08,13.08,0,0,1,2.18-4.35,10.79,10.79,0,0,1,3.62-3,11,11,0,0,1,5.13-1.12,10.79,10.79,0,0,1,4.77,1,10,10,0,0,1,3.48,2.72,12.17,12.17,0,0,1,2.12,4,15.83,15.83,0,0,1,.73,4.88c0,.16,0,.36,0,.57s0,.4,0,.53Zm18.9-1.65a15.57,15.57,0,0,0-.7-4,9.91,9.91,0,0,0-1.78-3.3,8.93,8.93,0,0,0-2.86-2.27,8.35,8.35,0,0,0-3.84-.85,9,9,0,0,0-4.06.87,9.21,9.21,0,0,0-2.95,2.3A10.21,10.21,0,0,0,261,26.22a15.82,15.82,0,0,0-.8,3.9Z" transform="translate(-0.17 0.5)"/><path class="96a78993-f8b8-44a3-81ef-800ef4d1dbd2" d="M295.22,44.37h-2.35l-10.35-25.7h2.2l9.3,23.5h.1l8.7-23.5h2.1Z" transform="translate(-0.17 0.5)"/><path class="96a78993-f8b8-44a3-81ef-800ef4d1dbd2" d="M308.32,31.77v.3a15.25,15.25,0,0,0,.6,4.3A10.83,10.83,0,0,0,310.7,40a8.41,8.41,0,0,0,3,2.45,9,9,0,0,0,4.13.9,8.81,8.81,0,0,0,6.12-2A10.62,10.62,0,0,0,327,35.67h1.9a11.48,11.48,0,0,1-3.68,6.9,11.13,11.13,0,0,1-7.47,2.4,11.27,11.27,0,0,1-5-1,10.07,10.07,0,0,1-3.55-2.8,11.72,11.72,0,0,1-2.12-4.2,19.4,19.4,0,0,1,0-10.4,13.08,13.08,0,0,1,2.18-4.35,10.69,10.69,0,0,1,3.62-3,11,11,0,0,1,5.13-1.12,10.79,10.79,0,0,1,4.77,1,10,10,0,0,1,3.48,2.72,12.17,12.17,0,0,1,2.12,4,15.83,15.83,0,0,1,.73,4.88c0,.16,0,.36,0,.57s0,.4,0,.53Zm18.9-1.65a15.57,15.57,0,0,0-.7-4,10.1,10.1,0,0,0-1.78-3.3,8.93,8.93,0,0,0-2.86-2.27,8.35,8.35,0,0,0-3.84-.85,9,9,0,0,0-4.06.87,9.37,9.37,0,0,0-3,2.3,10.19,10.19,0,0,0-1.85,3.33,15.82,15.82,0,0,0-.8,3.9Z" transform="translate(-0.17 0.5)"/><path class="96a78993-f8b8-44a3-81ef-800ef4d1dbd2" d="M335.92,8.67v35.7H334V8.67Z" transform="translate(-0.17 0.5)"/><path class="96a78993-f8b8-44a3-81ef-800ef4d1dbd2" d="M340.77,31.52a17.17,17.17,0,0,1,.77-5.18,13.07,13.07,0,0,1,2.28-4.27,10.75,10.75,0,0,1,3.7-2.93,12.45,12.45,0,0,1,10.1,0,10.84,10.84,0,0,1,3.7,2.93,12.87,12.87,0,0,1,2.27,4.27,16.87,16.87,0,0,1,.78,5.18,17.09,17.09,0,0,1-.78,5.2A12.49,12.49,0,0,1,361.32,41a10.88,10.88,0,0,1-3.7,2.9,12.35,12.35,0,0,1-10.1,0,10.78,10.78,0,0,1-3.7-2.9,12.68,12.68,0,0,1-2.28-4.27A17.4,17.4,0,0,1,340.77,31.52Zm1.9,0a15.1,15.1,0,0,0,.65,4.42,12,12,0,0,0,1.9,3.78,9.14,9.14,0,0,0,3.1,2.62,9.71,9.71,0,0,0,8.5,0,9.33,9.33,0,0,0,3.1-2.62,12,12,0,0,0,1.9-3.78,15.39,15.39,0,0,0,0-8.85,12.05,12.05,0,0,0-1.9-3.77,9.36,9.36,0,0,0-3.1-2.63,9.8,9.8,0,0,0-8.5,0,9.17,9.17,0,0,0-3.1,2.63,12.05,12.05,0,0,0-1.9,3.77A15.22,15.22,0,0,0,342.67,31.52Z" transform="translate(-0.17 0.5)"/><path class="96a78993-f8b8-44a3-81ef-800ef4d1dbd2" d="M371.12,24.57h.15a9.8,9.8,0,0,1,1-2.1,8.53,8.53,0,0,1,1.85-2.13,9.82,9.82,0,0,1,2.77-1.62,10.09,10.09,0,0,1,3.73-.65,11.26,11.26,0,0,1,5.12,1.1,10.39,10.39,0,0,1,3.6,2.95,12.74,12.74,0,0,1,2.13,4.3,18.89,18.89,0,0,1,.7,5.15,19.89,19.89,0,0,1-.7,5.4,11.91,11.91,0,0,1-2.13,4.22A9.87,9.87,0,0,1,385.73,44a12.37,12.37,0,0,1-5.14,1,11.53,11.53,0,0,1-5.71-1.4A8.18,8.18,0,0,1,371.22,39h-.1V53.57h-1.85V18.67h1.85Zm9.47,18.75a9.35,9.35,0,0,0,4.34-1,8.57,8.57,0,0,0,3-2.55,11.17,11.17,0,0,0,1.75-3.73,16.91,16.91,0,0,0,.58-4.52,17.54,17.54,0,0,0-.55-4.33,12.05,12.05,0,0,0-1.71-3.8,8.9,8.9,0,0,0-3-2.7,9,9,0,0,0-4.44-1,8.84,8.84,0,0,0-4.36,1,8.5,8.5,0,0,0-2.93,2.65,11.15,11.15,0,0,0-1.63,3.77,19,19,0,0,0-.5,4.43,21.24,21.24,0,0,0,.45,4.42,10.66,10.66,0,0,0,1.53,3.75,7.8,7.8,0,0,0,2.91,2.6A9.55,9.55,0,0,0,380.59,43.32Z" transform="translate(-0.17 0.5)"/><path class="96a78993-f8b8-44a3-81ef-800ef4d1dbd2" d="M397.32,31.77v.3a15.25,15.25,0,0,0,.6,4.3A10.83,10.83,0,0,0,399.7,40a8.41,8.41,0,0,0,3,2.45,9,9,0,0,0,4.13.9,8.81,8.81,0,0,0,6.12-2A10.62,10.62,0,0,0,416,35.67h1.9a11.48,11.48,0,0,1-3.68,6.9,11.13,11.13,0,0,1-7.47,2.4,11.27,11.27,0,0,1-5-1,10.07,10.07,0,0,1-3.55-2.8,11.72,11.72,0,0,1-2.12-4.2,19.4,19.4,0,0,1,0-10.4,13.08,13.08,0,0,1,2.18-4.35,10.69,10.69,0,0,1,3.62-3,11,11,0,0,1,5.13-1.12,10.79,10.79,0,0,1,4.77,1,10,10,0,0,1,3.48,2.72,12.17,12.17,0,0,1,2.12,4,15.83,15.83,0,0,1,.73,4.88c0,.16,0,.36,0,.57s0,.4,0,.53Zm18.9-1.65a15.57,15.57,0,0,0-.7-4,10.1,10.1,0,0,0-1.78-3.3,8.93,8.93,0,0,0-2.86-2.27,8.35,8.35,0,0,0-3.84-.85,9,9,0,0,0-4.06.87,9.37,9.37,0,0,0-3,2.3,10.19,10.19,0,0,0-1.85,3.33,15.82,15.82,0,0,0-.8,3.9Z" transform="translate(-0.17 0.5)"/><path class="96a78993-f8b8-44a3-81ef-800ef4d1dbd2" d="M424.47,24.37h.15A6.3,6.3,0,0,1,425.89,22a9.08,9.08,0,0,1,2.25-1.9,11.26,11.26,0,0,1,2.95-1.23,12.22,12.22,0,0,1,3.38-.37v1.9a9.16,9.16,0,0,0-3.43.3,8.28,8.28,0,0,0-3.67,2.2,16.7,16.7,0,0,0-1.23,1.45,6.67,6.67,0,0,0-.87,1.55,9.21,9.21,0,0,0-.55,1.9,15.37,15.37,0,0,0-.25,2.5v14h-1.9V18.67h1.9Z" transform="translate(-0.17 0.5)"/></svg>