<?xml version="1.0" encoding="utf-8"?>
<!-- Generator: Adobe Illustrator 22.1.0, SVG Export Plug-In . SVG Version: 6.00 Build 0)  -->
<svg version="1.1" xmlns="http://www.w3.org/2000/svg" xmlns:xlink="http://www.w3.org/1999/xlink" x="0px" y="0px"
	 viewBox="0 0 381 378" style="enable-background:new 0 0 381 378;" xml:space="preserve">
<style type="text/css">
	.st0{display:none;}
	.st1{display:inline;fill:#C22F2F;}
	.st2{display:inline;}
	.st3{display:inline;fill:none;}
	.st4{display:inline;clip-path:url(#SVGID_31_);}
	.st5{display:inline;clip-path:url(#SVGID_32_);fill:#161616;}
	.st6{fill:#EE7203;}
	.st7{fill:none;}
</style>
<g id="Layer_1" class="st0">
	<rect x="-12.3" y="-5.1" class="st1" width="430.7" height="466"/>
	<g class="st2">
		<defs>
			<rect id="SVGID_1_" x="9" y="10" width="360" height="360"/>
		</defs>
		<clipPath id="SVGID_2_">
			<use xlink:href="#SVGID_1_"  style="overflow:visible;"/>
		</clipPath>
	</g>
	<rect x="9" y="10" class="st3" width="360" height="360"/>
	<rect x="9" y="10" class="st3" width="360" height="360"/>
	<rect x="-531" y="-149" class="st3" width="1440" height="1010"/>
	<rect x="9" y="10" class="st3" width="360" height="360"/>
	<rect x="-531" y="-149" class="st3" width="1440" height="1010"/>
	<rect x="9" y="-422" class="st3" width="612" height="792"/>
	<g class="st2">
		<defs>
			<rect id="SVGID_3_" x="9" y="10" width="360" height="360"/>
		</defs>
		<clipPath id="SVGID_4_">
			<use xlink:href="#SVGID_3_"  style="overflow:visible;"/>
		</clipPath>
	</g>
	<rect x="9" y="10" class="st3" width="360" height="360"/>
	<g class="st2">
		<defs>
			<rect id="SVGID_5_" x="9" y="10" width="360" height="360"/>
		</defs>
		<clipPath id="SVGID_6_">
			<use xlink:href="#SVGID_5_"  style="overflow:visible;"/>
		</clipPath>
	</g>
	<rect x="9" y="10" class="st3" width="360" height="360"/>
	<rect x="9" y="10" class="st3" width="360" height="360"/>
	<rect x="-531" y="-149" class="st3" width="1440" height="1010"/>
	<rect x="9" y="10" class="st3" width="360" height="360"/>
	<rect x="-531" y="-149" class="st3" width="1440" height="1010"/>
	<rect x="9" y="-422" class="st3" width="612" height="792"/>
	<g class="st2">
		<defs>
			<rect id="SVGID_7_" x="9" y="10" width="360" height="360"/>
		</defs>
		<clipPath id="SVGID_8_">
			<use xlink:href="#SVGID_7_"  style="overflow:visible;"/>
		</clipPath>
	</g>
	<rect x="9" y="10" class="st3" width="360" height="360"/>
	<g class="st2">
		<defs>
			<rect id="SVGID_9_" x="9" y="10" width="360" height="360"/>
		</defs>
		<clipPath id="SVGID_10_">
			<use xlink:href="#SVGID_9_"  style="overflow:visible;"/>
		</clipPath>
	</g>
	<rect x="9" y="10" class="st3" width="360" height="360"/>
	<g class="st2">
		<defs>
			<rect id="SVGID_11_" x="9" y="10" width="360" height="360"/>
		</defs>
		<clipPath id="SVGID_12_">
			<use xlink:href="#SVGID_11_"  style="overflow:visible;"/>
		</clipPath>
	</g>
	<rect x="9" y="10" class="st3" width="360" height="360"/>
	<g class="st2">
		<defs>
			<rect id="SVGID_13_" x="9" y="10" width="360" height="360"/>
		</defs>
		<clipPath id="SVGID_14_">
			<use xlink:href="#SVGID_13_"  style="overflow:visible;"/>
		</clipPath>
	</g>
	<rect x="9" y="10" class="st3" width="360" height="360"/>
	<rect x="9" y="10" class="st3" width="360" height="360"/>
	<rect x="-531" y="-149" class="st3" width="1440" height="1010"/>
	<rect x="9" y="10" class="st3" width="360" height="360"/>
	<rect x="-531" y="-149" class="st3" width="1440" height="1010"/>
	<rect x="9" y="-422" class="st3" width="612" height="792"/>
	<g class="st2">
		<defs>
			<rect id="SVGID_15_" x="9" y="10" width="360" height="360"/>
		</defs>
		<clipPath id="SVGID_16_">
			<use xlink:href="#SVGID_15_"  style="overflow:visible;"/>
		</clipPath>
	</g>
	<rect x="9" y="10" class="st3" width="360" height="360"/>
	<g class="st2">
		<defs>
			<rect id="SVGID_17_" x="9" y="10" width="360" height="360"/>
		</defs>
		<clipPath id="SVGID_18_">
			<use xlink:href="#SVGID_17_"  style="overflow:visible;"/>
		</clipPath>
	</g>
	<rect x="9" y="10" class="st3" width="360" height="360"/>
	<rect x="9" y="10" class="st3" width="360" height="360"/>
	<rect x="-531" y="-149" class="st3" width="1440" height="1010"/>
	<rect x="9" y="10" class="st3" width="360" height="360"/>
	<rect x="-531" y="-149" class="st3" width="1440" height="1010"/>
	<rect x="9" y="-422" class="st3" width="612" height="792"/>
	<g class="st2">
		<defs>
			<rect id="SVGID_19_" x="9" y="10" width="360" height="360"/>
		</defs>
		<clipPath id="SVGID_20_">
			<use xlink:href="#SVGID_19_"  style="overflow:visible;"/>
		</clipPath>
	</g>
	<rect x="9" y="10" class="st3" width="360" height="360"/>
	<rect x="9" y="10" class="st3" width="360" height="360"/>
	<rect x="-531" y="-149" class="st3" width="1440" height="1010"/>
	<rect x="9" y="10" class="st3" width="360" height="360"/>
	<rect x="-531" y="-149" class="st3" width="1440" height="1010"/>
	<rect x="9" y="-422" class="st3" width="612" height="792"/>
	<g class="st2">
		<defs>
			<rect id="SVGID_21_" x="9" y="10" width="360" height="360"/>
		</defs>
		<clipPath id="SVGID_22_">
			<use xlink:href="#SVGID_21_"  style="overflow:visible;"/>
		</clipPath>
	</g>
	<rect x="9" y="10" class="st3" width="360" height="360"/>
	<g class="st2">
		<defs>
			<rect id="SVGID_23_" x="9" y="10" width="360" height="360"/>
		</defs>
		<clipPath id="SVGID_24_">
			<use xlink:href="#SVGID_23_"  style="overflow:visible;"/>
		</clipPath>
	</g>
	<rect x="9" y="10" class="st3" width="360" height="360"/>
	<rect x="9" y="10" class="st3" width="360" height="360"/>
	<rect x="-531" y="-149" class="st3" width="1440" height="1010"/>
	<rect x="9" y="10" class="st3" width="360" height="360"/>
	<rect x="-531" y="-149" class="st3" width="1440" height="1010"/>
	<rect x="9" y="-422" class="st3" width="612" height="792"/>
	<g class="st2">
		<defs>
			<rect id="SVGID_25_" x="9" y="10" width="360" height="360"/>
		</defs>
		<clipPath id="SVGID_26_">
			<use xlink:href="#SVGID_25_"  style="overflow:visible;"/>
		</clipPath>
	</g>
	<g class="st2">
		<defs>
			<rect id="SVGID_27_" x="9" y="10" width="360" height="360"/>
		</defs>
		<clipPath id="SVGID_28_">
			<use xlink:href="#SVGID_27_"  style="overflow:visible;"/>
		</clipPath>
	</g>
	<g>
		<defs>
			<rect id="SVGID_29_" x="9" y="10" width="360" height="360"/>
		</defs>
		<defs>
			<path id="SVGID_30_" d="M257.8,262.8c-18.1,18.1-41.7,27-68.7,27c-27.2,0-50.3-8.9-68.4-27l-8.9-0.1l2.2,2.3
				c19.5,20.4,45.5,31.2,75.2,31.2c29.7,0,55.7-10.8,75.2-31.2l2.2-2.3l-0.7,0.1H257.8"/>
		</defs>
		<clipPath id="SVGID_31_" class="st2">
			<use xlink:href="#SVGID_29_"  style="overflow:visible;"/>
		</clipPath>
		<clipPath id="SVGID_32_" class="st4">
			<use xlink:href="#SVGID_30_"  style="overflow:visible;"/>
		</clipPath>
		<rect x="143.9" y="318.5" class="st5" width="164.7" height="43.5"/>
	</g>
	<g class="st2">
		<defs>
			<rect id="SVGID_33_" x="9" y="10" width="360" height="360"/>
		</defs>
		<clipPath id="SVGID_34_">
			<use xlink:href="#SVGID_33_"  style="overflow:visible;"/>
		</clipPath>
	</g>
	<g class="st2">
		<defs>
			<rect id="SVGID_35_" x="9" y="10" width="360" height="360"/>
		</defs>
		<clipPath id="SVGID_36_">
			<use xlink:href="#SVGID_35_"  style="overflow:visible;"/>
		</clipPath>
	</g>
	<g class="st2">
		<defs>
			<rect id="SVGID_37_" x="9" y="10" width="360" height="360"/>
		</defs>
		<clipPath id="SVGID_38_">
			<use xlink:href="#SVGID_37_"  style="overflow:visible;"/>
		</clipPath>
	</g>
	<g class="st2">
		<defs>
			<rect id="SVGID_39_" x="9" y="10" width="360" height="360"/>
		</defs>
		<clipPath id="SVGID_40_">
			<use xlink:href="#SVGID_39_"  style="overflow:visible;"/>
		</clipPath>
	</g>
	<g class="st2">
		<defs>
			<rect id="SVGID_41_" x="9" y="10" width="360" height="360"/>
		</defs>
		<clipPath id="SVGID_42_">
			<use xlink:href="#SVGID_41_"  style="overflow:visible;"/>
		</clipPath>
	</g>
	<g class="st2">
		<defs>
			<rect id="SVGID_43_" x="9" y="10" width="360" height="360"/>
		</defs>
		<clipPath id="SVGID_44_">
			<use xlink:href="#SVGID_43_"  style="overflow:visible;"/>
		</clipPath>
	</g>
	<g class="st2">
		<defs>
			<rect id="SVGID_45_" x="9" y="10" width="360" height="360"/>
		</defs>
		<clipPath id="SVGID_46_">
			<use xlink:href="#SVGID_45_"  style="overflow:visible;"/>
		</clipPath>
	</g>
	<g class="st2">
		<defs>
			<rect id="SVGID_47_" x="9" y="10" width="360" height="360"/>
		</defs>
		<clipPath id="SVGID_48_">
			<use xlink:href="#SVGID_47_"  style="overflow:visible;"/>
		</clipPath>
	</g>
	<g class="st2">
		<defs>
			<rect id="SVGID_49_" x="9" y="10" width="360" height="360"/>
		</defs>
		<clipPath id="SVGID_50_">
			<use xlink:href="#SVGID_49_"  style="overflow:visible;"/>
		</clipPath>
	</g>
	<g class="st2">
		<defs>
			<rect id="SVGID_51_" x="9" y="10" width="360" height="360"/>
		</defs>
		<clipPath id="SVGID_52_">
			<use xlink:href="#SVGID_51_"  style="overflow:visible;"/>
		</clipPath>
	</g>
	<g class="st2">
		<defs>
			<rect id="SVGID_53_" x="9" y="10" width="360" height="360"/>
		</defs>
		<clipPath id="SVGID_54_">
			<use xlink:href="#SVGID_53_"  style="overflow:visible;"/>
		</clipPath>
	</g>
	<g class="st2">
		<defs>
			<rect id="SVGID_55_" x="9" y="10" width="360" height="360"/>
		</defs>
		<clipPath id="SVGID_56_">
			<use xlink:href="#SVGID_55_"  style="overflow:visible;"/>
		</clipPath>
	</g>
	<g class="st2">
		<defs>
			<rect id="SVGID_57_" x="9" y="10" width="360" height="360"/>
		</defs>
		<clipPath id="SVGID_58_">
			<use xlink:href="#SVGID_57_"  style="overflow:visible;"/>
		</clipPath>
	</g>
	<g class="st2">
		<defs>
			<rect id="SVGID_59_" x="9" y="10" width="360" height="360"/>
		</defs>
		<clipPath id="SVGID_60_">
			<use xlink:href="#SVGID_59_"  style="overflow:visible;"/>
		</clipPath>
	</g>
	<g class="st2">
		<defs>
			<rect id="SVGID_61_" x="9" y="10" width="360" height="360"/>
		</defs>
		<clipPath id="SVGID_62_">
			<use xlink:href="#SVGID_61_"  style="overflow:visible;"/>
		</clipPath>
	</g>
	<g class="st2">
		<defs>
			<rect id="SVGID_63_" x="9" y="10" width="360" height="360"/>
		</defs>
		<clipPath id="SVGID_64_">
			<use xlink:href="#SVGID_63_"  style="overflow:visible;"/>
		</clipPath>
	</g>
	<g class="st2">
		<defs>
			<rect id="SVGID_65_" x="9" y="10" width="360" height="360"/>
		</defs>
		<clipPath id="SVGID_66_">
			<use xlink:href="#SVGID_65_"  style="overflow:visible;"/>
		</clipPath>
	</g>
	<g class="st2">
		<defs>
			<rect id="SVGID_67_" x="9" y="10" width="360" height="360"/>
		</defs>
		<clipPath id="SVGID_68_">
			<use xlink:href="#SVGID_67_"  style="overflow:visible;"/>
		</clipPath>
	</g>
	<g class="st2">
		<defs>
			<rect id="SVGID_69_" x="9" y="10" width="360" height="360"/>
		</defs>
		<clipPath id="SVGID_70_">
			<use xlink:href="#SVGID_69_"  style="overflow:visible;"/>
		</clipPath>
	</g>
	<g class="st2">
		<defs>
			<rect id="SVGID_71_" x="9" y="10" width="360" height="360"/>
		</defs>
		<clipPath id="SVGID_72_">
			<use xlink:href="#SVGID_71_"  style="overflow:visible;"/>
		</clipPath>
	</g>
	<g class="st2">
		<defs>
			<rect id="SVGID_73_" x="9" y="10" width="360" height="360"/>
		</defs>
		<clipPath id="SVGID_74_">
			<use xlink:href="#SVGID_73_"  style="overflow:visible;"/>
		</clipPath>
	</g>
	<g class="st2">
		<defs>
			<rect id="SVGID_75_" x="9" y="10" width="360" height="360"/>
		</defs>
		<clipPath id="SVGID_76_">
			<use xlink:href="#SVGID_75_"  style="overflow:visible;"/>
		</clipPath>
	</g>
	<g class="st2">
		<defs>
			<rect id="SVGID_77_" x="9" y="10" width="360" height="360"/>
		</defs>
		<clipPath id="SVGID_78_">
			<use xlink:href="#SVGID_77_"  style="overflow:visible;"/>
		</clipPath>
	</g>
	<g class="st2">
		<defs>
			<rect id="SVGID_79_" x="9" y="10" width="360" height="360"/>
		</defs>
		<clipPath id="SVGID_80_">
			<use xlink:href="#SVGID_79_"  style="overflow:visible;"/>
		</clipPath>
	</g>
	<g class="st2">
		<defs>
			<rect id="SVGID_81_" x="9" y="10" width="360" height="360"/>
		</defs>
		<clipPath id="SVGID_82_">
			<use xlink:href="#SVGID_81_"  style="overflow:visible;"/>
		</clipPath>
	</g>
	<g class="st2">
		<defs>
			<rect id="SVGID_83_" x="9" y="10" width="360" height="360"/>
		</defs>
		<clipPath id="SVGID_84_">
			<use xlink:href="#SVGID_83_"  style="overflow:visible;"/>
		</clipPath>
	</g>
	<g class="st2">
		<defs>
			<rect id="SVGID_85_" x="9" y="10" width="360" height="360"/>
		</defs>
		<clipPath id="SVGID_86_">
			<use xlink:href="#SVGID_85_"  style="overflow:visible;"/>
		</clipPath>
	</g>
	<g class="st2">
		<defs>
			<rect id="SVGID_87_" x="9" y="10" width="360" height="360"/>
		</defs>
		<clipPath id="SVGID_88_">
			<use xlink:href="#SVGID_87_"  style="overflow:visible;"/>
		</clipPath>
	</g>
	<g class="st2">
		<defs>
			<rect id="SVGID_89_" x="9" y="10" width="360" height="360"/>
		</defs>
		<clipPath id="SVGID_90_">
			<use xlink:href="#SVGID_89_"  style="overflow:visible;"/>
		</clipPath>
	</g>
</g>
<g id="Ebene_2">
	<g>
		<path class="st6" d="M229.8,72.8l2.6-9.4c0.4-1.3-0.1-1.9-1-2.2l-1.6-0.4l-3.6,13l1.6,0.4C228.7,74.4,229.4,74.1,229.8,72.8z"/>
		<path class="st6" d="M147.7,67.7c0.9-0.3,1.3-0.8,0.9-2.1l-0.8-2.7c-0.4-1.3-1-1.6-1.9-1.3l-1.3,0.4l1.8,6.1L147.7,67.7z"/>
		<path class="st6" d="M245.2,78.3l3.8-9c0.5-1.2,0.2-1.9-0.7-2.3l-1.5-0.6l-5.2,12.4l1.5,0.6C243.9,79.8,244.6,79.6,245.2,78.3z"/>
		<path class="st6" d="M180.8,62.3c0.9-0.1,1.4-0.5,1.4-1.9l-0.2-2.8c-0.1-1.3-0.6-1.7-1.5-1.7L179,56l0.3,6.4L180.8,62.3z"/>
		<path class="st6" d="M189,44.2c-80.5,0-145.8,65.3-145.8,145.8h291.6C334.8,109.5,269.5,44.2,189,44.2z M245,62.8l4.3,1.8
			c2.7,1.1,3.4,3.2,2.3,6l-3.7,8.8c-1.2,2.8-3.1,3.7-5.9,2.6l-4.3-1.8L245,62.8z M227.6,57.4l4.5,1.2c2.9,0.8,3.8,2.7,3,5.7
			l-2.5,9.2c-0.8,2.9-2.6,4.1-5.5,3.3l-4.5-1.2L227.6,57.4z M208,68.4l1.5-9.7c0.5-3,2.2-4.5,5.1-4c2.9,0.4,4.1,2.4,3.6,5.3
			l-0.3,1.8l-2.8-0.4l0.3-2c0.2-1.3-0.3-1.9-1.2-2.1c-0.9-0.1-1.6,0.3-1.8,1.6L210.9,69c-0.2,1.3,0.3,1.9,1.2,2
			c0.9,0.1,1.6-0.2,1.8-1.6l0.5-3.4l-1.3-0.2l0.4-2.7l4.1,0.6l-0.9,5.9c-0.5,3-2.2,4.5-5.1,4C208.8,73.3,207.5,71.3,208,68.4z
			 M192.7,53l3,0.1L195,67.6c-0.1,1.3,0.5,1.9,1.5,1.9c0.9,0,1.6-0.4,1.6-1.8l0.6-14.5l2.8,0.1l-0.6,14.3c-0.1,3-1.7,4.7-4.6,4.5
			c-2.9-0.1-4.3-1.9-4.2-4.9L192.7,53z M180.3,53.3c3-0.2,4.5,1.4,4.7,4.4l0.1,2.4c0.2,3-1.2,4.7-4.2,4.9l-1.4,0.1l0.4,7.1l-3,0.2
			l-1-18.8L180.3,53.3z M160.6,55.4l1.3,8l3.3-0.5l-1.3-8l3-0.5l3,18.6l-3,0.5l-1.3-8l-3.3,0.5l1.3,8l-2.9,0.5l-3-18.6L160.6,55.4z
			 M145.2,59c2.8-0.8,4.7,0.4,5.5,3.2l0.7,2.4c0.8,2.9-0.1,4.9-3,5.7l-1.3,0.4l2,6.8l-2.8,0.8L141,60.2L145.2,59z M128.1,65.1
			l1.3,4.2l1.6-0.7l-1.3-4.1l2.2-1l1.3,4.2l1.3-0.6l0.6,2l-1.3,0.6l1.5,4.7l1.3-0.6l0.6,2l-1.3,0.6l1.6,5.2l-2.2,1l-1.6-5.2
			l-1.6,0.7l1.6,5.2l-2.2,1l-1.6-5.2l-1.2,0.5l-0.6-2l1.2-0.5l-1.5-4.7l-1.2,0.5l-0.6-2l1.2-0.5l-1.3-4.1L128.1,65.1z M109.4,110.4
			c21.3-21.3,49.5-33,79.6-33c30.1,0,58.3,11.7,79.6,33c19.5,19.5,31,44.9,32.7,72.2H76.7C78.4,155.3,89.9,129.9,109.4,110.4z"/>
		<polygon class="st6" points="133.2,75.3 131.7,70.5 130,71.2 131.6,76 		"/>
	</g>
	<rect x="-531" y="-149" class="st7" width="1440" height="1010"/>
	<rect x="-531" y="-149" class="st7" width="1440" height="1010"/>
	<rect x="-531" y="-149" class="st7" width="1440" height="1010"/>
	<rect x="-531" y="-149" class="st7" width="1440" height="1010"/>
	<rect x="-531" y="-149" class="st7" width="1440" height="1010"/>
	<rect x="-531" y="-149" class="st7" width="1440" height="1010"/>
	<rect x="-531" y="-149" class="st7" width="1440" height="1010"/>
	<g>
		<path class="st6" d="M146.9,304.4l-1.5-0.6l-4.6,11.8l1.5,0.6c0.8,0.3,1.5,0.1,1.9-1.1l3.4-8.6C148,305.4,147.7,304.8,146.9,304.4
			z"/>
		<path class="st6" d="M160.8,308.9l-1.3-0.3l-1.3,5.3l1.1,0.3c1,0.3,1.7,0,2.1-1.4l0.4-1.7C162,309.8,161.8,309.1,160.8,308.9z"/>
		<path class="st6" d="M204.9,312.8c-0.2-1.3-0.7-1.6-1.6-1.5l-1.6,0.2l1.6,12.6l1.6-0.2c0.9-0.1,1.3-0.6,1.2-1.9L204.9,312.8z"/>
		<path class="st6" d="M58,254c23.7,48.4,73.5,81.8,131,81.8c57.6,0,107.3-33.4,131-81.8H58z M150.1,307.7l-3.3,8.3
			c-1,2.6-2.9,3.6-5.5,2.6l-4.1-1.6l6.5-16.5l4.1,1.6C150.5,303.1,151.2,305.1,150.1,307.7z M164.5,311.4l-0.3,1.4
			c-0.4,1.8-1.3,2.8-2.6,3l0,0c1.2,0.9,1.3,2.3,0.9,4.1l-0.7,2.7c-0.2,0.8-0.3,1.5-0.2,2.2l-2.8-0.7c0-0.5-0.1-0.8,0.3-2.2l0.7-2.7
			c0.4-1.6,0-2.3-1.2-2.6l-0.9-0.2l-1.7,7l-2.7-0.7l4.3-17.2l4.1,1C164.3,307.1,165.2,308.7,164.5,311.4z M178.7,311.9l-4.8-0.6
			l-0.6,4.9l3.8,0.4l-0.3,2.5l-3.8-0.4l-0.6,5.2l4.8,0.6l-0.3,2.5l-7.5-0.9l2.1-17.6l7.5,0.9L178.7,311.9z M188.7,327.6
			c-2.7,0-4.2-1.6-4.2-4.4l0-1.1l2.6,0l0,1.3c0,1.3,0.6,1.7,1.5,1.7c0.9,0,1.4-0.5,1.4-1.7c0-1.3-0.6-2.2-2.4-3.8
			c-2.4-2-3.1-3.5-3.1-5.5c0-2.8,1.3-4.5,4-4.5c2.7,0,4.1,1.6,4.2,4.4l0,0.6l-2.6,0l0-0.7c0-1.3-0.5-1.7-1.4-1.7
			c-0.9,0-1.4,0.5-1.4,1.8c0,1.3,0.6,2.2,2.4,3.8c2.4,2,3.1,3.5,3.1,5.5C192.8,325.9,191.4,327.6,188.7,327.6z M205.2,326.3
			l-4.4,0.6l-2.3-17.6l4.4-0.6c2.8-0.4,4.3,1,4.7,3.8l1.1,8.9C209.2,324.3,208,326,205.2,326.3z M217.4,324.2L213,307l7.4-1.9
			l0.6,2.5l-4.7,1.2l1.2,4.8l3.7-1l0.6,2.5l-3.7,1l1.3,5l4.7-1.2l0.6,2.5L217.4,324.2z M238,317.6l-7.9-10.7l0,0l4.7,11.9l-2.3,0.9
			l-6.5-16.5l3.2-1.3l6.5,8.8l0,0l-3.9-9.9l2.3-0.9l6.5,16.5L238,317.6z M268.6,269.6c-21.3,21.3-49.5,33-79.6,33
			c-30.1,0-58.3-11.7-79.6-33c-2.2-2.2-4.3-4.5-6.3-6.8h171.8C272.9,265.1,270.8,267.4,268.6,269.6z"/>
		<polygon class="st6" points="58,254 58,254 58,254 		"/>
	</g>
	<path d="M257.8,262.8c-18.1,18.1-41.7,27-68.7,27c-27.2,0-50.3-8.9-68.4-27l-8.9-0.1l2.2,2.3c19.5,20.4,45.5,31.2,75.2,31.2
		c29.7,0,55.7-10.8,75.2-31.2l2.2-2.3l-0.7,0.1H257.8"/>
	<polyline points="165.4,272.2 167.5,272.2 167.5,273.6 165.4,273.6 165.4,276.4 168,276.4 168,277.7 163.9,277.7 163.9,268.2 
		168,268.2 168,269.6 165.4,269.6 165.4,272.2 	"/>
	<path d="M172.3,268.1c1.5,0,2.2,0.9,2.2,2.4v0.3h-1.4v-0.4c0-0.7-0.3-0.9-0.7-0.9s-0.7,0.3-0.7,0.9c0,0.7,0.3,1.2,1.3,2.1
		c1.3,1.1,1.6,1.9,1.6,3c0,1.5-0.8,2.4-2.2,2.4c-1.5,0-2.2-0.9-2.2-2.4v-0.6h1.4v0.7c0,0.7,0.3,0.9,0.8,0.9s0.8-0.2,0.8-0.9
		c0-0.7-0.3-1.2-1.3-2.1c-1.3-1.1-1.6-1.9-1.6-3C170.1,269,170.8,268.1,172.3,268.1"/>
	<polyline points="176.3,268.2 180.9,268.2 180.9,269.6 179.3,269.6 179.3,277.7 177.8,277.7 177.8,269.6 176.3,269.6 176.3,268.2 	
		"/>
	<polygon points="182.1,276.3 183.5,276.3 183.5,277.7 182.1,277.7 182.1,276.3 	"/>
	<path d="M191.7,269.5c-0.5,0-0.8,0.3-0.8,0.9v1h-1.4v-0.9c0-1.5,0.8-2.4,2.2-2.4c1.5,0,2.2,0.9,2.2,2.4c0,1.3-0.5,2.3-1.9,3.8
		c-0.9,1-1.1,1.4-1.1,1.9c0,0.1,0,0.1,0,0.2h2.8v1.4h-4.3v-1.2c0-1.1,0.4-1.9,1.5-3c1.1-1.2,1.5-2,1.5-3
		C192.4,269.7,192.1,269.5,191.7,269.5"/>
	<path d="M198.4,268.1c-1.5,0-2.3,0.9-2.3,2.4v5c0,1.5,0.8,2.4,2.3,2.4c1.5,0,2.3-0.9,2.3-2.4v-5C200.6,269,199.8,268.1,198.4,268.1
		z M199.1,275.6c0,0.7-0.3,0.9-0.8,0.9c-0.5,0-0.8-0.3-0.8-0.9v-5.1c0-0.7,0.3-0.9,0.8-0.9c0.5,0,0.8,0.3,0.8,0.9V275.6z"/>
	<path d="M203.9,269.4c1.2,0,1.4-0.6,1.6-1.2h1v9.5H205v-7.3h-1.2V269.4"/>
	<path d="M211,274.7v0.9c0,0.7,0.3,0.9,0.8,0.9s0.8-0.2,0.8-0.9v-2.1c0-0.7-0.3-0.9-0.8-0.9s-0.8,0.3-0.8,0.9v0.3h-1.4l0.3-5.5h3.9
		v1.4h-2.6l-0.1,2.3h0c0.3-0.4,0.7-0.7,1.3-0.7c1.1,0,1.7,0.8,1.7,2.2v2.1c0,1.5-0.8,2.4-2.2,2.4c-1.5,0-2.2-0.9-2.2-2.4v-0.8
		L211,274.7"/>
	<path d="M189,10C89.7,10,9,90.7,9,190c0,99.3,80.7,180,180,180c99.3,0,180-80.7,180-180C369,90.7,288.3,10,189,10z M189,366
		c-97.2,0-176-78.8-176-176S91.8,14,189,14s176,78.8,176,176S286.2,366,189,366z"/>
	<path d="M189,36.5c-84.6,0-153.5,68.9-153.5,153.5S104.4,343.5,189,343.5S342.5,274.6,342.5,190S273.6,36.5,189,36.5L189,36.5
		L189,36.5z M189,356.9c-92.1,0-166.9-74.9-166.9-166.9S96.9,23.1,189,23.1S355.9,97.9,355.9,190S281.1,356.9,189,356.9L189,356.9
		L189,356.9z"/>
	<path d="M165.7,117.4c1.8,0,1.4,3.4,1.4,3.4h-2.6C164.5,120.8,163.9,117.4,165.7,117.4L165.7,117.4L165.7,117.4z M173.5,162.3
		h-16.7c0.2-0.1,8.3-4.9,8.3-4.9S173.3,162.2,173.5,162.3L173.5,162.3L173.5,162.3z M172.4,177.8h-2.9v-8.9c0,0,0.4-1.1,1.5-1.1
		c1.1,0,1.4,1.3,1.4,1.3L172.4,177.8L172.4,177.8L172.4,177.8z M167.6,178.1h-4.8v-12.8c0,0,0.5-2,2.4-2c1.8,0,2.4,2,2.4,2
		L167.6,178.1L167.6,178.1L167.6,178.1z M160.9,177.8H158v-8.6c0,0,0.4-1.3,1.4-1.3c1.1,0,1.5,1.1,1.5,1.1L160.9,177.8L160.9,177.8
		L160.9,177.8z M162.2,112.9c1.8,0,1.4,3.4,1.4,3.4H161C161,116.3,160.4,112.9,162.2,112.9L162.2,112.9L162.2,112.9z M181.7,165.4
		c0,0,0.6-2.1,2.3-2.1c1.7,0,2.4,2,2.4,2v13h-4.7V165.4L181.7,165.4L181.7,165.4z M196.9,176.1h2.3v4.6h-2.3V176.1L196.9,176.1z
		 M199.6,161.3c0.9,0,0.7,4,0.7,4h-1.3C199.1,165.3,198.8,161.3,199.6,161.3L199.6,161.3L199.6,161.3z M201.6,150.6h8v0.7h-8V150.6
		L201.6,150.6z M205.4,165.3h-1.3c0,0-0.3-4,0.6-4C205.5,161.3,205.4,165.3,205.4,165.3L205.4,165.3L205.4,165.3z M202.2,176.1h2.3
		v4.6h-2.3V176.1L202.2,176.1z M207.6,176.1h2.3v4.6h-2.3V176.1L207.6,176.1z M209.7,160.7c1.3,0,1,4.6,1,4.6h-1.9
		C208.8,165.3,208.4,160.7,209.7,160.7L209.7,160.7L209.7,160.7z M212.9,175.7h2.3v5h-2.3V175.7L212.9,175.7z M214.7,160.1
		c1.2,0,1,5.2,1,5.2h-1.8C213.9,165.3,213.5,160.1,214.7,160.1L214.7,160.1L214.7,160.1z M219.7,159c2,0,1.6,6.3,1.6,6.3h-2.9
		C218.3,165.3,217.7,159,219.7,159L219.7,159L219.7,159z M227.8,173.2h4.7v7.5h-4.7V173.2L227.8,173.2z M218.3,175.7h2.3v5h-2.3
		V175.7L218.3,175.7z M239.4,175.7h2.3v5h-2.3V175.7L239.4,175.7z M241,159.1c2,0,1.3,6.3,1.3,6.3h-2.9
		C239.4,165.4,239,159.1,241,159.1L241,159.1L241,159.1z M244.7,175.7h2.3v5h-2.3V175.7L244.7,175.7z M246,160.2
		c1.2,0,0.8,5.2,0.8,5.2H245C245,165.4,244.8,160.2,246,160.2L246,160.2L246,160.2z M251,160.8c1.3,0,0.9,4.6,0.9,4.6H250
		C250,165.4,249.7,160.8,251,160.8L251,160.8L251,160.8z M250.1,176.1h2.3v4.6h-2.3V176.1L250.1,176.1z M256,161.4
		c0.9,0,0.6,4,0.6,4h-1.3C255.3,165.4,255.1,161.4,256,161.4L256,161.4L256,161.4z M255.4,176.1h2.3v4.6h-2.3L255.4,176.1
		L255.4,176.1z M261,161.4c0.9,0,0.6,4,0.6,4h-1.3C260.3,165.4,260.1,161.4,261,161.4L261,161.4L261,161.4z M260.8,176.1h2.3v4.6
		h-2.3V176.1L260.8,176.1z M148.6,178.3h-4.7v-13c0,0,0.7-2,2.4-2c1.7,0,2.3,2.1,2.3,2.1L148.6,178.3L148.6,178.3L148.6,178.3z
		 M135.6,167.7h-0.2l-0.6-5.2l0.8,0V167.7L135.6,167.7L135.6,167.7z M130.5,143.9h-1.8c0,0-0.4-2.9,0.8-2.9
		C130.8,141,130.5,143.9,130.5,143.9L130.5,143.9L130.5,143.9z M130.5,164.4h-1.8c0,0-0.4-6.5,0.8-6.5S130.5,164.4,130.5,164.4
		L130.5,164.4L130.5,164.4z M189.1,90.1c25.8,0,50.1,9.5,68.6,26.7c18.2,17,29.1,40.9,30.8,65.8h6.4c-1.7-26.7-13.4-52.3-32.9-70.4
		c-19.7-18.3-45.6-28.4-72.9-28.4c-27.4,0-53.3,10.1-73,28.4c-19.7,18.3-31.5,43.3-33,70.2l0,0.2h6.3c1.5-25.3,12.5-48.6,31-65.8
		c12.2-11.4,27-19.3,43.1-23.5c0,1.4,0.1,5.7,0,5.9c-0.2,0.3-0.4,1.7-0.4,1.7l-3.3,2.8v4.2l-2.1,1.4h1.2v10.4H158v1.9h0.8v3.7
		l-4.6,4.4h-1.5l-0.9-2.2L151,130h0.8v2.3l-2.5,4.6v6.9c0.7,0,0.4,1.1,0.4,1.1l-0.9,4h-0.9v-3.7h-0.7v5.6l-1.1,2.7h-2.8v-5.4h0.3
		v-3.1l-0.3,0.4l-0.7,1.2V144l0.7,0v-1.9l-0.7,0l-1.2-5.9l-1.2,5.9h-0.8l0,1.9h0.7c0.1,0,0,2.5,0,2.5l-1.4-1.8v3.5h0.5v5.4h-3.6v6.5
		h-1.8v-6.5l0.5-0.7v-3.4l-3.1-3v-5.2h1.1c0,0-0.8-1.8-1.3-1.9l-1.2-13.6v-1.4h0.8V124h-0.8v-1.2h-0.2v1.2h-0.8v0.3h0.8v1.4
		l-1.2,13.6c-0.6,0.1-1.3,1.9-1.3,1.9h1.1v5.2l-3.1,3v3.4l0.5,0.7v6.5h-2.2v2.6l1.2-0.1l-0.5,3.9c0,0-0.7,0.4-0.7-0.5
		c-0.1-0.8,0-9.7,0-9.7v-2.4c0,0-3.7-8.3-9.5-8.8v-3h1.3v-0.5h-1.3v-1.4h-0.7v1.4h-1.3v0.5h1.3v3c-6.1,0.1-10,9-10,9v1.2
		c1.4-0.4,4.9-1.4,7.4-1.4h9.2v0.7h-9.2c-2.5,0-6.2,1-7.4,1.4v1.1c1.4-0.4,4.9-1.4,7.4-1.4h9.2v0.7h-9.2c-2.5,0-6.2,1-7.4,1.4v1.1
		c1.4-0.4,4.9-1.4,7.4-1.4h9.2v0.7h-9.2c-2.5,0-6.2,1-7.4,1.4v3.6l-2.5,5.5h7v-2.8h1.4v2.8h0.5v-2.8h1v2.8h0.6v-2.4h1.4v2.4h6.4v1.8
		h-18.9V170l-0.2,0.5v12.1h181.6v-4.2h-3.9v-18.9h-13.3c-3.4-1.7-7.3-2.3-7.3-2.3v0c-3.8-0.6-11.9-1.6-23.2-1.8
		c-15.9-0.2-26.9,2-27,2.1l-0.1-0.7c0.1,0,11.1-2.3,27.1-2.1c11.2,0.1,19.3,1.2,23.2,1.8v-3.9c0,0-8-1.6-16.3-2.5l0.7-3h-1.9
		l-0.1-1.4c0,0,0.3,0.1,0.4-0.1c0.1-0.2,0-0.6-0.1-0.6s-0.1,0.1-0.3-0.4c-0.1-0.5-0.2-0.8-0.3-0.9s0-0.5-0.1-0.6
		c-0.1,0-0.2,0.3-0.2,0.4c0,0.1-0.3,0.6-0.3,0.9s-0.7,2-0.9,2.2c-0.2,0.2-1.6,0.1-1.6,0.1V145h-1.1c0,0-1.5-1.5-0.7-2.1
		c0.8-0.6,1.5-1.2,1.5-1.2s0.4-0.6,0-1s-1.1,0.1-1.2,0.2s-0.5,0.7-0.8,0.7c-0.3,0-0.4-0.2-0.5-0.3s0-2.1,0-2.1c0,0-1.4,0-1.4,0V139
		h-0.4v0.4c0,0-1.4,0-1.4,0c0,0,0,2,0,2.1c0,0.1-0.2,0.3-0.5,0.3c-0.3,0-0.6-0.5-0.8-0.7c-0.1-0.1-0.8-0.6-1.2-0.2s0,1,0,1
		s0.7,0.6,1.5,1.2c0.8,0.6-0.7,2.1-0.7,2.1h-1.1v1.7c0,0-1.4,0.1-1.6-0.1c-0.2-0.2-0.9-1.9-0.9-2.2c0-0.3-0.3-0.8-0.3-0.9
		c0-0.1-0.1-0.5-0.2-0.4c-0.1,0,0,0.5-0.1,0.6c-0.1,0.1-0.2,0.4-0.3,0.9c-0.1,0.5-0.1,0.3-0.3,0.4c-0.2,0.1-0.3,0.4-0.1,0.6
		c0.1,0.2,0.4,0.1,0.4,0.1l-0.1,1.4h-1.9l0.7,2.9c-5.5,0.5-10.1,1.3-11.7,1.6v-5.9h0.5V145h-0.7l-2.1-4.7v-9l-1.1,2.7l-1.2-2.8
		c0.7-0.3,1.2-0.9,1.2-1.6c0-0.9-0.7-1.6-1.7-1.7v-4.3h-0.6v4.3c-1,0.1-1.8,0.8-1.8,1.7c0,0.8,0.6,1.5,1.5,1.7v0.4l-0.9,2.6H203
		v-2.9h-1.1v2.3c0,3.2,0.8,3.2,0.8,3.2v3.5l-1.9,4.4h-0.7v0.7h0.7v7.8h-1c0,0,0-0.4,0-1.5c0-1.1-1-0.8-1.1-0.8c-0.1,0-0.9,2-0.9,2
		h-3.3c-0.6,0-2,0.6-2,0.6h-3.6v-5.4h0.5v-3.5l-1.4,1.8c0,0-0.1-2.5,0-2.5h0.7l0-1.9h-0.8l-1.2-5.9l-1.2,5.9l-0.7,0v1.9l0.7,0v2.5
		l-0.7-1.2v8.1H182l-1.1-2.7v-5.6h-0.7v3.7h-0.9l-0.9-4c0,0-0.3-1.1,0.4-1.1v-6.9l-2.5-4.6V130h0.8l-0.8-2.7l-0.9,2.2h-1.5l-4.6-4.4
		v-3.7h0.8v-1.9h-0.8v-10.4h1.2l-2.1-1.4v-4.2l-3.3-2.8c0,0-0.2-1.4-0.4-1.7c-0.2-0.2,0-5.1,0-6.2C172.5,91.1,180.7,90.1,189.1,90.1
		L189.1,90.1L189.1,90.1z"/>
	<path d="M62.7,207.1v13.1h2.9c1.9,0,3-0.9,3-3.6v-5.8c0-2.8-1.1-3.6-3-3.6H62.7L62.7,207.1L62.7,207.1z M74.7,211.1v5
		c0,6.2-3,9.6-9.1,9.6h-2.9v14.5h-6.1v-38.7h9C71.7,201.5,74.7,204.9,74.7,211.1L74.7,211.1L74.7,211.1z"/>
	<path d="M62.7,207.1v13.1h2.9c1.9,0,3-0.9,3-3.6v-5.8c0-2.8-1.1-3.6-3-3.6H62.7L62.7,207.1L62.7,207.1z M74.7,211.1v5
		c0,6.2-3,9.6-9.1,9.6h-2.9v14.5h-6.1v-38.7h9C71.7,201.5,74.7,204.9,74.7,211.1L74.7,211.1L74.7,211.1z"/>
	<path d="M62.7,207.1v13.1h2.9c1.9,0,3-0.9,3-3.6v-5.8c0-2.8-1.1-3.6-3-3.6H62.7L62.7,207.1L62.7,207.1z M74.7,211.1v5
		c0,6.2-3,9.6-9.1,9.6h-2.9v14.5h-6.1v-38.7h9C71.7,201.5,74.7,204.9,74.7,211.1L74.7,211.1L74.7,211.1z"/>
	<polyline points="83.6,240.2 77.5,240.2 77.5,201.5 83.6,201.5 83.6,218.1 90.5,218.1 90.5,201.5 96.7,201.5 96.7,240.2 
		90.5,240.2 90.5,223.6 83.6,223.6 83.6,240.2 	"/>
	<path d="M107.1,207.1v13.1h2.9c1.9,0,3-0.9,3-3.6v-5.8c0-2.8-1.1-3.6-3-3.6H107.1L107.1,207.1L107.1,207.1z M119.1,211.1v5
		c0,6.2-3,9.6-9.1,9.6h-2.9v14.5h-6.1v-38.7h9C116.1,201.5,119.1,204.9,119.1,211.1L119.1,211.1L119.1,211.1z"/>
	<path d="M107.1,207.1v13.1h2.9c1.9,0,3-0.9,3-3.6v-5.8c0-2.8-1.1-3.6-3-3.6H107.1L107.1,207.1L107.1,207.1z M119.1,211.1v5
		c0,6.2-3,9.6-9.1,9.6h-2.9v14.5h-6.1v-38.7h9C116.1,201.5,119.1,204.9,119.1,211.1L119.1,211.1L119.1,211.1z"/>
	<path d="M107.1,207.1v13.1h2.9c1.9,0,3-0.9,3-3.6v-5.8c0-2.8-1.1-3.6-3-3.6H107.1L107.1,207.1L107.1,207.1z M119.1,211.1v5
		c0,6.2-3,9.6-9.1,9.6h-2.9v14.5h-6.1v-38.7h9C116.1,201.5,119.1,204.9,119.1,211.1L119.1,211.1L119.1,211.1z"/>
	<path d="M136.3,201.5v29.8c0,2.8,1.2,3.8,3.2,3.8c1.9,0,3.2-1,3.2-3.8v-29.8h5.7V231c0,6.2-3.1,9.7-9.1,9.7c-6,0-9.1-3.5-9.1-9.7
		v-29.5H136.3"/>
	<path d="M160.6,201.1c5.9,0,9,3.5,9,9.7v1.2h-5.7v-1.6c0-2.8-1.1-3.8-3-3.8c-1.9,0-3,1.1-3,3.8c0,2.8,1.2,4.9,5.2,8.4
		c5.1,4.5,6.7,7.7,6.7,12.1c0,6.2-3.1,9.7-9.1,9.7s-9.1-3.5-9.1-9.7v-2.4h5.7v2.8c0,2.8,1.2,3.8,3.2,3.8s3.2-1,3.2-3.8
		c0-2.8-1.2-4.9-5.2-8.4c-5.1-4.5-6.7-7.7-6.7-12.1C151.7,204.6,154.7,201.1,160.6,201.1"/>
	<polyline points="179.2,217.8 187.6,217.8 187.6,223.4 179.2,223.4 179.2,234.7 189.7,234.7 189.7,240.2 173.1,240.2 173.1,201.5 
		189.7,201.5 189.7,207.1 179.2,207.1 179.2,217.8 	"/>
	<path d="M199.6,207.1v11.9h2.4c2.3,0,3.6-1,3.6-4.1V211c0-2.8-0.9-4-3.1-4L199.6,207.1L199.6,207.1L199.6,207.1z M206.2,240.2
		c-0.3-1-0.6-1.6-0.6-4.8v-6.1c0-3.6-1.2-4.9-4-4.9h-2.1v15.8h-6.1v-38.7h9.2c6.3,0,9,2.9,9,8.9v3c0,4-1.3,6.5-4,7.8v0.1
		c3,1.3,4,4.1,4,8.2v6c0,1.9,0.1,3.3,0.7,4.7H206.2L206.2,240.2L206.2,240.2z"/>
	<path d="M199.6,207.1v11.9h2.4c2.3,0,3.6-1,3.6-4.1V211c0-2.8-0.9-4-3.1-4L199.6,207.1L199.6,207.1L199.6,207.1z M206.2,240.2
		c-0.3-1-0.6-1.6-0.6-4.8v-6.1c0-3.6-1.2-4.9-4-4.9h-2.1v15.8h-6.1v-38.7h9.2c6.3,0,9,2.9,9,8.9v3c0,4-1.3,6.5-4,7.8v0.1
		c3,1.3,4,4.1,4,8.2v6c0,1.9,0.1,3.3,0.7,4.7H206.2L206.2,240.2L206.2,240.2z"/>
	<path d="M199.6,207.1v11.9h2.4c2.3,0,3.6-1,3.6-4.1V211c0-2.8-0.9-4-3.1-4L199.6,207.1L199.6,207.1L199.6,207.1z M206.2,240.2
		c-0.3-1-0.6-1.6-0.6-4.8v-6.1c0-3.6-1.2-4.9-4-4.9h-2.1v15.8h-6.1v-38.7h9.2c6.3,0,9,2.9,9,8.9v3c0,4-1.3,6.5-4,7.8v0.1
		c3,1.3,4,4.1,4,8.2v6c0,1.9,0.1,3.3,0.7,4.7H206.2L206.2,240.2L206.2,240.2z"/>
	<path d="M224.8,218.7h8.5v12.3c0,6.2-3.1,9.7-9.1,9.7c-6,0-9.1-3.5-9.1-9.7v-20.1c0-6.2,3.1-9.7,9.1-9.7c6,0,9.1,3.5,9.1,9.7v3.8
		h-5.7v-4.1c0-2.8-1.2-3.8-3.2-3.8s-3.1,1.1-3.1,3.8v20.9c0,2.8,1.2,3.8,3.1,3.8s3.2-1,3.2-3.8v-7.1h-2.8V218.7"/>
	<path d="M243.3,207.1v11.9h2.4c2.3,0,3.6-1,3.6-4.1V211c0-2.8-0.9-4-3.1-4L243.3,207.1L243.3,207.1L243.3,207.1z M250,240.2
		c-0.3-1-0.6-1.6-0.6-4.8v-6.1c0-3.6-1.2-4.9-4-4.9h-2.1v15.8h-6.1v-38.7h9.2c6.3,0,9,2.9,9,8.9v3c0,4-1.3,6.5-4,7.8v0.1
		c3,1.3,4,4.1,4,8.2v6c0,1.9,0.1,3.3,0.7,4.7H250L250,240.2L250,240.2z"/>
	<path d="M243.3,207.1v11.9h2.4c2.3,0,3.6-1,3.6-4.1V211c0-2.8-0.9-4-3.1-4L243.3,207.1L243.3,207.1L243.3,207.1z M250,240.2
		c-0.3-1-0.6-1.6-0.6-4.8v-6.1c0-3.6-1.2-4.9-4-4.9h-2.1v15.8h-6.1v-38.7h9.2c6.3,0,9,2.9,9,8.9v3c0,4-1.3,6.5-4,7.8v0.1
		c3,1.3,4,4.1,4,8.2v6c0,1.9,0.1,3.3,0.7,4.7H250L250,240.2L250,240.2z"/>
	<path d="M243.3,207.1v11.9h2.4c2.3,0,3.6-1,3.6-4.1V211c0-2.8-0.9-4-3.1-4L243.3,207.1L243.3,207.1L243.3,207.1z M250,240.2
		c-0.3-1-0.6-1.6-0.6-4.8v-6.1c0-3.6-1.2-4.9-4-4.9h-2.1v15.8h-6.1v-38.7h9.2c6.3,0,9,2.9,9,8.9v3c0,4-1.3,6.5-4,7.8v0.1
		c3,1.3,4,4.1,4,8.2v6c0,1.9,0.1,3.3,0.7,4.7H250L250,240.2L250,240.2z"/>
	<path d="M265,231.3c0,2.8,1.2,3.8,3.1,3.8c1.9,0,3.2-1.1,3.2-3.8v-20.9c0-2.8-1.2-3.8-3.2-3.8c-1.9,0-3.1,1.1-3.1,3.8V231.3
		L265,231.3L265,231.3z M259,210.8c0-6.2,3.3-9.7,9.2-9.7c6,0,9.2,3.5,9.2,9.7v20.1c0,6.2-3.3,9.7-9.2,9.7c-6,0-9.2-3.5-9.2-9.7
		V210.8L259,210.8L259,210.8z"/>
	<path d="M265,231.3c0,2.8,1.2,3.8,3.1,3.8c1.9,0,3.2-1.1,3.2-3.8v-20.9c0-2.8-1.2-3.8-3.2-3.8c-1.9,0-3.1,1.1-3.1,3.8V231.3
		L265,231.3L265,231.3z M259,210.8c0-6.2,3.3-9.7,9.2-9.7c6,0,9.2,3.5,9.2,9.7v20.1c0,6.2-3.3,9.7-9.2,9.7c-6,0-9.2-3.5-9.2-9.7
		V210.8L259,210.8L259,210.8z"/>
	<path d="M265,231.3c0,2.8,1.2,3.8,3.1,3.8c1.9,0,3.2-1.1,3.2-3.8v-20.9c0-2.8-1.2-3.8-3.2-3.8c-1.9,0-3.1,1.1-3.1,3.8V231.3
		L265,231.3L265,231.3z M259,210.8c0-6.2,3.3-9.7,9.2-9.7c6,0,9.2,3.5,9.2,9.7v20.1c0,6.2-3.3,9.7-9.2,9.7c-6,0-9.2-3.5-9.2-9.7
		V210.8L259,210.8L259,210.8z"/>
	<path d="M287.2,201.5v29.8c0,2.8,1.2,3.8,3.2,3.8c1.9,0,3.2-1,3.2-3.8v-29.8h5.7V231c0,6.2-3.1,9.7-9.1,9.7c-6,0-9.1-3.5-9.1-9.7
		v-29.5H287.2"/>
	<path d="M309.4,207.1v13.1h2.9c1.9,0,3-0.9,3-3.6v-5.8c0-2.8-1-3.6-3-3.6H309.4L309.4,207.1L309.4,207.1z M321.4,211.1v5
		c0,6.2-3,9.6-9.1,9.6h-2.9v14.5h-6.1v-38.7h9C318.4,201.5,321.4,204.9,321.4,211.1L321.4,211.1L321.4,211.1z"/>
	<path d="M309.4,207.1v13.1h2.9c1.9,0,3-0.9,3-3.6v-5.8c0-2.8-1-3.6-3-3.6H309.4L309.4,207.1L309.4,207.1z M321.4,211.1v5
		c0,6.2-3,9.6-9.1,9.6h-2.9v14.5h-6.1v-38.7h9C318.4,201.5,321.4,204.9,321.4,211.1L321.4,211.1L321.4,211.1z"/>
	<path d="M309.4,207.1v13.1h2.9c1.9,0,3-0.9,3-3.6v-5.8c0-2.8-1-3.6-3-3.6H309.4L309.4,207.1L309.4,207.1z M321.4,211.1v5
		c0,6.2-3,9.6-9.1,9.6h-2.9v14.5h-6.1v-38.7h9C318.4,201.5,321.4,204.9,321.4,211.1L321.4,211.1L321.4,211.1z"/>
</g>
</svg>
